G04 #@! TF.FileFunction,Copper,L1,Top,Signal*
%FSLAX46Y46*%
G04 Gerber Fmt 4.6, Leading zero omitted, Abs format (unit mm)*
G04 Created by KiCad (PCBNEW 4.0.2-stable) date Wednesday, 12 October 2016 'pmt' 07:44:15 pm*
%MOMM*%
G01*
G04 APERTURE LIST*
%ADD10C,0.100000*%
%ADD11R,2.032000X1.727200*%
%ADD12O,2.032000X1.727200*%
%ADD13C,1.998980*%
%ADD14O,2.499360X1.501140*%
%ADD15R,1.300000X1.300000*%
%ADD16C,1.300000*%
%ADD17C,0.250000*%
G04 APERTURE END LIST*
D10*
D11*
X157480000Y-81280000D03*
D12*
X157480000Y-83820000D03*
X157480000Y-86360000D03*
X157480000Y-88900000D03*
D13*
X175260000Y-81280000D03*
X175260000Y-91440000D03*
X175260000Y-96520000D03*
X175260000Y-106680000D03*
X166370000Y-85090000D03*
X166370000Y-95250000D03*
D14*
X185420000Y-71120000D03*
X185420000Y-68580000D03*
X185420000Y-73660000D03*
D11*
X157480000Y-93980000D03*
D12*
X157480000Y-96520000D03*
X157480000Y-99060000D03*
X157480000Y-101600000D03*
X157480000Y-104140000D03*
X157480000Y-106680000D03*
D15*
X154940000Y-71120000D03*
D16*
X157440000Y-71120000D03*
D12*
X180340000Y-106680000D03*
X180340000Y-104140000D03*
X180340000Y-101600000D03*
X180340000Y-99060000D03*
X180340000Y-96520000D03*
X180340000Y-93980000D03*
X180340000Y-91440000D03*
X180340000Y-88900000D03*
X180340000Y-86360000D03*
X180340000Y-83820000D03*
X180340000Y-81280000D03*
D11*
X180340000Y-78740000D03*
X162560000Y-78740000D03*
D12*
X162560000Y-81280000D03*
X162560000Y-83820000D03*
X162560000Y-86360000D03*
X162560000Y-88900000D03*
X162560000Y-91440000D03*
X162560000Y-93980000D03*
X162560000Y-96520000D03*
X162560000Y-99060000D03*
X162560000Y-101600000D03*
X162560000Y-104140000D03*
X162560000Y-106680000D03*
D11*
X185420000Y-80010000D03*
D12*
X185420000Y-82550000D03*
X185420000Y-85090000D03*
X185420000Y-87630000D03*
X185420000Y-90170000D03*
X185420000Y-92710000D03*
D17*
X154940000Y-71120000D02*
X154940000Y-77470000D01*
X153670000Y-90170000D02*
X157480000Y-93980000D01*
X153670000Y-78740000D02*
X153670000Y-90170000D01*
X154940000Y-77470000D02*
X153670000Y-78740000D01*
X157440000Y-71120000D02*
X157440000Y-78700000D01*
X154940000Y-88900000D02*
X157480000Y-88900000D01*
X154940000Y-78740000D02*
X154940000Y-88900000D01*
X157400000Y-78740000D02*
X154940000Y-78740000D01*
X157440000Y-78700000D02*
X157400000Y-78740000D01*
X175260000Y-106680000D02*
X175260000Y-109220000D01*
X154940000Y-101600000D02*
X157480000Y-101600000D01*
X154940000Y-109220000D02*
X154940000Y-101600000D01*
X175260000Y-109220000D02*
X154940000Y-109220000D01*
X157480000Y-96520000D02*
X158750000Y-96520000D01*
X158750000Y-96520000D02*
X160020000Y-97790000D01*
X160020000Y-97790000D02*
X160020000Y-99060000D01*
X160020000Y-99060000D02*
X157480000Y-101600000D01*
X157440000Y-71120000D02*
X158750000Y-71120000D01*
X160020000Y-93980000D02*
X157480000Y-96520000D01*
X160020000Y-72390000D02*
X160020000Y-93980000D01*
X158750000Y-71120000D02*
X160020000Y-72390000D01*
X180340000Y-104140000D02*
X179070000Y-104140000D01*
X176530000Y-106680000D02*
X175260000Y-106680000D01*
X179070000Y-104140000D02*
X176530000Y-106680000D01*
X185420000Y-90170000D02*
X184150000Y-90170000D01*
X182880000Y-101600000D02*
X180340000Y-104140000D01*
X182880000Y-91440000D02*
X182880000Y-101600000D01*
X184150000Y-90170000D02*
X182880000Y-91440000D01*
X185420000Y-71120000D02*
X182880000Y-71120000D01*
X182880000Y-82550000D02*
X185420000Y-82550000D01*
X182880000Y-71120000D02*
X182880000Y-82550000D01*
X185420000Y-68580000D02*
X180340000Y-68580000D01*
X180340000Y-68580000D02*
X162560000Y-86360000D01*
X189230000Y-97790000D02*
X180340000Y-106680000D01*
X189230000Y-73660000D02*
X189230000Y-97790000D01*
X185420000Y-73660000D02*
X189230000Y-73660000D01*
X180340000Y-88900000D02*
X179070000Y-88900000D01*
X177800000Y-93980000D02*
X175260000Y-96520000D01*
X177800000Y-90170000D02*
X177800000Y-93980000D01*
X179070000Y-88900000D02*
X177800000Y-90170000D01*
X185420000Y-85090000D02*
X184150000Y-85090000D01*
X184150000Y-85090000D02*
X180340000Y-88900000D01*
X185420000Y-80010000D02*
X187960000Y-80010000D01*
X187960000Y-85090000D02*
X185420000Y-85090000D01*
X187960000Y-80010000D02*
X187960000Y-85090000D01*
X166370000Y-85090000D02*
X165735000Y-85090000D01*
X165735000Y-85090000D02*
X164465000Y-86360000D01*
X164465000Y-104775000D02*
X162560000Y-106680000D01*
X164465000Y-86360000D02*
X164465000Y-104775000D01*
X175260000Y-91440000D02*
X172720000Y-91440000D01*
X172720000Y-91440000D02*
X166370000Y-85090000D01*
X157480000Y-106680000D02*
X162560000Y-106680000D01*
X185420000Y-87630000D02*
X187960000Y-87630000D01*
X187960000Y-87630000D02*
X187960000Y-92710000D01*
X187960000Y-92710000D02*
X185420000Y-92710000D01*
M02*
